PathFileType	4	(X/Y/Z)	 s01c0401.trc
DataRate	CameraRate	NumFrames	NumMarkers	Units	OrigDataRate	OrigDataStartFrame	OrigNumFrames
200	200	6	48	mm	200	751	2000
Frame#	Time	racr			lacr			c7			jug			rlel			rdr			llel			ldr			s2			lic			ric			lasi			rasi			rpsi			lpsi			rgt			lgt			rth1			rth2			rth3			rth4			rlfc			rsh1			rsh2			rsh3			rsh4			rlmal			rmmal			rcal			rtoe			rmt5			lth1			lth2			lth4			lth3			llfc			lsh1			lsh2			lsh3			lsh4			llmal			lmmal			lcal			ltoe			lmt5			SBIKE			LBIKE			RBIKE			
		X1	Y1	Z1	X2	Y2	Z2	X3	Y3	Z3	X4	Y4	Z4	X5	Y5	Z5	X6	Y6	Z6	X7	Y7	Z7	X8	Y8	Z8	X9	Y9	Z9	X10	Y10	Z10	X11	Y11	Z11	X12	Y12	Z12	X13	Y13	Z13	X14	Y14	Z14	X15	Y15	Z15	X16	Y16	Z16	X17	Y17	Z17	X18	Y18	Z18	X19	Y19	Z19	X20	Y20	Z20	X21	Y21	Z21	X22	Y22	Z22	X23	Y23	Z23	X24	Y24	Z24	X25	Y25	Z25	X26	Y26	Z26	X27	Y27	Z27	X28	Y28	Z28	X29	Y29	Z29	X30	Y30	Z30	X31	Y31	Z31	X32	Y32	Z32	X33	Y33	Z33	X34	Y34	Z34	X35	Y35	Z35	X36	Y36	Z36	X37	Y37	Z37	X38	Y38	Z38	X39	Y39	Z39	X40	Y40	Z40	X41	Y41	Z41	X42	Y42	Z42	X43	Y43	Z43	X44	Y44	Z44	X45	Y45	Z45	X46	Y46	Z46	X47	Y47	Z47	X48	Y48	Z48	
751	3.7550	721.344107	1286.277227	-16.928481	751.659587	1254.889844	-399.403777	735.149143	1381.694566	-206.860817	723.537816	1212.236901	-199.953250	542.505179	1052.981045	61.924641	698.318764	891.742408	-36.623461	567.057603	1067.722435	-544.481352	698.231369	892.957199	-441.197800	194.553623	1213.474919	-224.780463	368.505264	1205.476570	-395.916918	344.547510	1190.101074	-61.731156	360.108988	1148.773316	-368.328050	371.901147	1142.562160	-95.371959	230.304943	1246.234381	-171.673013	227.984739	1256.075726	-276.344769	284.827558	1079.794593	-44.161216	300.866069	1079.895886	-420.339869	351.190834	959.159776	-33.631585	396.448911	890.210244	-41.461313	440.246157	812.368152	-56.489582	444.404055	918.018519	-52.909676	474.773897	703.740548	-83.266736	417.840879	596.654931	-53.139915	388.514370	517.326862	-61.375712	349.585776	438.545678	-75.182306	431.644354	502.987567	-101.096708	282.883016	332.783509	-98.038592	324.041749	339.827533	-177.364731	233.323975	317.603143	-153.351760	486.217197	221.630069	-126.468109	374.879608	221.672316	-62.390426	361.533661	972.477493	-439.866551	425.733163	913.522607	-432.115046	461.510202	950.957415	-416.245120	480.580439	848.763884	-421.290317	513.465030	748.004596	-405.919728	404.865161	711.928740	-441.319424	328.962259	670.645602	-435.575103	252.127219	633.392928	-423.171828	356.653733	624.457169	-404.508803	139.990914	580.404934	-409.523351	163.793135	559.172977	-330.095382	87.176502	597.902783	-365.119430	211.057206	349.268865	-371.325885	139.924648	428.889850	-436.877946	-270.223964	878.160869	-264.646931	-11.962099	84.697082	-453.401870	-20.232312	80.835689	-53.547180	
752	3.7600	721.625676	1286.773886	-18.454382	750.775331	1255.504717	-400.954432	734.214268	1382.501227	-208.381262	723.504444	1212.953991	-201.566813	543.299302	1053.432548	62.089267	698.335511	891.605810	-36.628331	566.476575	1067.313818	-545.104818	697.987146	892.840816	-441.359613	194.389409	1211.489466	-223.518817	367.369471	1205.178756	-395.549124	345.319108	1188.201848	-60.892163	359.892652	1148.378762	-367.738468	372.450281	1140.531091	-94.735933	230.558665	1244.011782	-170.425932	227.472054	1254.551964	-274.833672	284.428944	1077.165453	-44.192405	301.518151	1080.502986	-420.358523	349.133181	955.428953	-33.691968	393.048506	885.685027	-41.556312	435.364207	807.032498	-56.663059	441.179614	912.451056	-52.481702	467.820566	697.390514	-83.239732	411.474091	590.171324	-53.091132	382.869587	510.562119	-61.428588	344.568814	431.482877	-75.205876	425.909556	496.579485	-101.056504	278.386466	325.693057	-98.462512	318.997053	332.517689	-177.670142	229.060449	311.793384	-153.428359	480.359089	211.441818	-126.891167	369.084696	213.463908	-62.676538	364.937559	975.400473	-440.662840	430.628319	918.203763	-433.278772	465.458540	956.367069	-416.841631	487.227067	854.703226	-422.736848	521.896831	754.330932	-407.504114	413.052325	718.473037	-442.458802	337.015539	677.744240	-436.475326	260.024218	640.880530	-423.694596	364.497608	631.199583	-405.729674	149.690861	587.269156	-408.469951	171.893301	567.129496	-329.972078	95.176646	606.269072	-365.212630	217.349807	356.847960	-371.324346	146.794580	436.900341	-436.830626	-270.223442	878.142966	-264.710437	-11.961366	84.662415	-453.422445	-20.217148	80.801335	-53.564431	
753	3.7650	721.860424	1287.403706	-19.876635	749.915956	1255.980326	-402.607061	733.312984	1383.339862	-210.023599	723.572395	1213.976645	-203.322809	544.173637	1053.872120	62.232862	698.402304	891.439960	-36.590705	565.666746	1066.834999	-546.043456	697.718454	892.796622	-441.530274	194.398964	1209.513630	-222.103968	366.066067	1205.005402	-395.206213	346.207358	1186.180931	-60.166222	359.506588	1148.105616	-367.131579	373.107106	1138.434470	-94.239494	230.861765	1241.751640	-169.060154	226.963163	1253.071509	-273.170597	284.267279	1074.442142	-44.258866	301.940178	1081.268033	-420.366032	347.077716	951.837519	-33.644937	389.630200	881.175575	-41.685850	430.391470	801.826379	-56.874177	438.261787	907.102509	-52.743629	460.613160	691.351516	-83.543706	404.916332	583.857435	-53.057506	376.835574	504.096297	-61.449088	339.124896	424.743340	-75.144916	420.025556	490.433259	-101.054691	273.426429	319.062216	-99.141412	314.112692	325.597014	-177.485405	224.380315	306.206061	-153.506403	473.974724	201.507089	-127.315828	362.830662	205.559981	-63.025875	367.954234	978.438755	-441.412836	435.078459	922.930786	-434.568399	468.969856	961.781319	-417.634801	493.336846	860.717171	-424.226955	530.087101	760.847986	-409.315899	421.264284	725.113347	-443.556784	345.214892	684.752239	-437.327834	267.675917	648.257665	-424.458231	372.415852	638.010620	-406.772449	161.364267	592.781424	-406.152053	180.216242	574.769370	-329.854556	103.367138	614.265163	-365.315276	224.244432	364.084250	-371.172415	154.075085	444.581644	-436.721043	-270.172839	878.095251	-264.759787	-11.955803	84.634458	-453.432933	-20.231267	80.809979	-53.587887	
754	3.7700	722.118482	1288.160293	-21.499459	749.052225	1256.380934	-404.359253	732.492524	1384.259023	-211.825079	723.581860	1215.047606	-205.008114	545.242809	1054.389104	62.383699	698.524552	891.259539	-36.473256	564.857161	1066.385961	-546.913819	697.481866	892.809646	-441.702053	194.526403	1207.693935	-220.488384	364.612514	1204.975596	-394.879382	347.266381	1184.038250	-59.493037	359.101717	1148.097200	-366.715669	373.870254	1136.319116	-93.866845	231.137352	1239.743605	-167.376704	226.491901	1251.584901	-271.399707	284.277552	1071.859067	-44.367131	302.211901	1082.030293	-420.461540	345.068324	948.245766	-33.652573	386.159141	876.811170	-41.898848	425.169329	796.705484	-56.550234	435.397566	901.816128	-53.364636	453.134144	685.513189	-83.826750	398.261656	577.819123	-53.128719	370.604834	497.872270	-61.427238	333.373782	418.296063	-75.096268	413.707985	484.446258	-100.985438	268.332128	312.766796	-99.391685	308.983475	319.163269	-177.187547	219.385870	301.052473	-153.488116	467.180522	191.794956	-127.809812	356.171430	198.065554	-63.225644	370.612066	981.491355	-442.145616	439.069868	927.548636	-435.809193	472.121536	967.211100	-418.720024	498.808740	866.769276	-425.818680	538.003129	767.354104	-411.205461	429.473703	731.836545	-444.632548	353.377354	691.739923	-438.157658	275.470771	655.648745	-425.334875	380.582720	644.868942	-407.689901	172.997872	598.064309	-403.808914	188.524689	582.140918	-329.711423	111.767322	621.793163	-365.231645	231.806521	371.231046	-371.074059	161.769796	451.900547	-436.562440	-270.221557	878.081681	-264.796902	-11.949375	84.623745	-453.435292	-20.205543	80.747743	-53.564802	
755	3.7750	722.376382	1289.217637	-23.137781	748.162541	1256.744247	-406.267990	731.729252	1385.210941	-213.826198	723.626552	1215.976155	-206.795221	546.329724	1055.085211	62.470129	698.673746	891.092487	-36.247037	563.991816	1065.900091	-547.864302	697.281510	892.886796	-441.872999	194.698868	1205.926430	-218.750035	363.039350	1205.143638	-394.560189	348.359550	1181.882045	-59.025834	358.593490	1148.289514	-366.402439	374.725010	1134.211595	-93.642255	231.423005	1237.767711	-165.489865	226.054468	1250.154458	-269.521975	284.583038	1069.012191	-44.399497	302.179349	1083.086267	-420.523922	342.961359	944.838780	-33.611403	382.572462	872.549762	-42.073965	419.901965	791.646240	-56.847494	432.027797	896.607200	-53.834830	445.640019	679.912444	-83.997227	391.313820	572.115396	-53.113089	364.095324	492.120707	-61.377146	327.387294	412.210700	-75.006053	407.284037	478.880990	-101.087085	262.751561	306.744373	-99.692481	304.437396	313.514159	-176.671686	213.962999	296.149253	-153.383757	459.886927	182.683625	-128.448781	349.259015	191.061075	-63.416699	372.922973	984.482781	-442.855791	442.690692	932.161143	-437.219414	474.868813	972.541443	-420.037621	503.940597	872.775972	-427.437740	545.749250	773.971223	-413.104855	437.605176	738.733624	-445.692854	361.540580	698.679564	-439.010538	283.510193	662.698661	-425.954137	388.761979	651.710936	-408.473589	181.294715	604.909064	-403.857677	197.190640	589.187403	-329.545500	120.045548	628.805181	-365.098860	239.821215	378.062598	-370.866775	169.962440	458.878750	-436.417217	-270.225428	878.097312	-264.723473	-11.943410	84.621729	-453.431854	-20.177118	80.730333	-53.560246	
756	3.7800	722.616832	1290.256194	-24.946810	747.221474	1257.084683	-408.306611	731.028462	1386.153949	-215.944801	723.701142	1217.190956	-208.666037	547.595653	1055.853349	62.466955	698.855852	891.039996	-35.933861	563.056614	1065.331354	-548.894746	697.122852	893.032076	-442.113268	195.402831	1203.765041	-216.109685	361.399546	1205.458998	-394.285554	349.587245	1179.671872	-58.700601	358.071413	1148.647375	-366.116380	375.662113	1132.151893	-93.567845	231.552257	1235.934383	-163.346933	225.595928	1248.778626	-267.608194	285.140266	1066.103142	-44.404750	301.861367	1084.133607	-421.038482	340.810482	941.677942	-33.672212	378.813823	868.600785	-42.152825	414.416257	786.898711	-57.151458	428.770753	891.503996	-54.070421	438.018300	674.560162	-84.239474	384.243013	566.775952	-53.109357	357.360164	486.654157	-61.434477	321.014108	406.578360	-74.889785	400.750511	473.699729	-101.233917	256.710816	301.286938	-99.929335	299.553778	308.247521	-176.146217	207.961590	291.850007	-153.143053	452.094821	174.198233	-128.999143	341.865492	184.509296	-63.531075	374.939237	987.338850	-443.561660	445.915804	936.614853	-438.606618	477.283121	977.826866	-421.416839	508.621913	878.665762	-429.187016	553.303221	780.837604	-414.895492	445.563134	745.682195	-446.782409	369.476387	705.657742	-439.785757	291.526035	669.573498	-426.434289	396.825734	658.599841	-409.027282	189.606286	611.385832	-403.772115	205.837708	595.932889	-329.279051	128.265712	635.287617	-364.834917	248.341539	384.792658	-370.717030	178.472215	465.458315	-436.228660	-270.234901	878.115982	-264.690192	-11.935933	84.630287	-453.420700	-20.185087	80.725536	-53.546485	
